# xmcd CD database file
#
# Track frame offsets:
#	150
#	18429
#	30514
#	45059
#	59857
#	74104
#	88376
#	101843
#	117322
#	139712
#	150665
#	171717
#
# Disc length: 2508 seconds
#
# Revision: 1
# Processed by: cddbd v1.5.2PL0 Copyright (c) Steve Scherf et al.
# Submitted via: CDex 1.70beta2
#
DISCID=af09ca0c
DTITLE=Various Artist - 喫茶ジャズ
DYEAR=2015
DGENRE=Jazz
TTITLE0=Mood Indigo
TTITLE1=Ain’t This A Wonderful Day
TTITLE2=From This Moment On
TTITLE3=I’ll Look Around
TTITLE4=Black Coffee
TTITLE5=Stormy Weather
TTITLE6=Tomorrow Mountain
TTITLE7=People Will Say We’re In Love
TTITLE8=It’s Crazy
TTITLE9=I’m Gonna Sit Right Down And Write Myself A Letter
TTITLE10=They Can’t Take That Away From Me
TTITLE11=Begin The Beguine
EXTD=YEAR: 2015
EXTT0=
EXTT1=
EXTT2=
EXTT3=
EXTT4=
EXTT5=
EXTT6=
EXTT7=
EXTT8=
EXTT9=
EXTT10=
EXTT11=
PLAYORDER=
